<?xml version="1.0" encoding="utf-8"?>
<!-- Generator: Adobe Illustrator 16.0.0, SVG Export Plug-In . SVG Version: 6.00 Build 0)  -->
<!DOCTYPE svg PUBLIC "-//W3C//DTD SVG 1.1//EN" "http://www.w3.org/Graphics/SVG/1.1/DTD/svg11.dtd">
<svg version="1.1" xmlns="http://www.w3.org/2000/svg" xmlns:xlink="http://www.w3.org/1999/xlink" x="0px" y="0px" width="150px"
	 height="150px" viewBox="0 0 150 150" style="enable-background:new 0 0 150 150;" xml:space="preserve">
<style type="text/css">
<![CDATA[
	.st0{stroke:#000000;stroke-miterlimit:10;}
]]>
</style>
<g id="Layer_3">
</g>
<g id="Layer_12">
</g>
<g id="Layer_7">
	<g>
		<g>
			<path d="M54.1,76.2c1.8,1.2,3.8,2.2,5.8,3c0.7-2.8,1.4-5.6,2.1-8.4C57.6,72,51,74.2,54.1,76.2z"/>
		</g>
		<g>
			<g>
				<g>
					<path d="M66.6,69.9c-1,3.6-1.9,7.2-2.7,10.9C67.5,82,71.3,83,75,84.2c1.4-4.6,3.8-9.9,5.6-15.1C75.9,68.7,70.9,69.2,66.6,69.9z
						"/>
				</g>
			</g>
			<g>
				<g>
					<path d="M112.5,49.4c-20.6-5.3-31.8-5.3-24.1-23.7c2.6-5.3,12-16.5,6-22.4C86.7-4,69.5,6.6,63.5,10.5c-8.6-11.9-18,0-12.9,9.2
						C54,25.7,60,29,60.9,34.9v-2c1.7,17.8-15.5,23.7-35.2,31.6c-35.2,15.1-30.1,63.9,5.2,78.4c34.4,13.8,93.7,6.6,110-22.4
						C155.5,96.2,148.6,58,112.5,49.4z M98.1,113.5c-6.7,4-15.8,4.6-24.6,3.9c-0.6,6.8-0.9,13.6-1,20.2c0,2.1-3,3-4,1.1
						c-0.6-1.2-0.7-1.7-1.1-3.1c-0.2-1,0.2-1.8,0.9-2.3c0.1-5.4,0.5-10.9,1-16.3c-4.1-0.5-8-1.2-11.5-1.9c-0.8-0.2-2.3-0.5-4.2-1
						c-0.8,2.8-1.4,5.5-1.9,8.4c1.2,0.3,2.3,1.7,1.5,3.2c-0.8,1.8-1.7,3.5-2.6,5.3c-0.9,2-4.1,1-4-1.1c0.2-5.8,1.3-11.5,2.8-17
						c-7.1-2.5-14.8-6.7-8.2-12.1c2.1-1.8,5.2,1.3,3.1,3.1c-2.8,2.3,3.8,4.3,6.3,5.1c2.3-7.5,5.1-14.9,7.3-22.4
						c0.3-0.9,0.5-1.8,0.8-2.7c-3-1.2-5.7-2.6-7.9-4.6c-5.8-5.2,1.4-9.7,6.2-11.5c1.9-0.7,4.1-1.3,6.4-1.8
						c1.7-5.6,3.7-11.1,6.8-16.2c1.5-2.4,5.2-0.2,3.7,2.2c-2.5,4.1-4.4,8.6-5.9,13.2c4.6-0.7,9.5-0.9,13.8-0.3
						c1.3-4.9,1.8-9.7,0.1-14c-1-2.6,3.2-3.7,4.2-1.1c1.9,5.1,1.3,10.5-0.2,16c1,0.3,2,0.6,3,1c2.5,1.1,1.4,5.2-1.1,4.2
						c-1-0.4-2.1-0.7-3.1-1c-1.7,5-3.9,9.9-5.2,14.3c-0.2,0.5-0.3,1.1-0.4,1.6c1.3,0.4,2.5,0.9,3.8,1.4
						C89.6,89.8,111.3,105.6,98.1,113.5z"/>
				</g>
			</g>
		</g>
		<g>
			<g>
				<path d="M74,88.3c-3.4-1.1-7.3-2-11.2-3.2c-0.4,1.6-0.8,3.2-1.3,4.7c-2,6.7-4.5,13.4-6.6,20.1c4.9,1.3,9.9,2,14.9,2.5
					C70.7,104.3,72.1,96.2,74,88.3z"/>
			</g>
			<g>
				<path d="M96.4,103.3C91.9,96.8,85.2,92.6,78,89.7c-1.8,7.5-3.1,15.2-4,23C82,113,103,113,96.4,103.3z"/>
			</g>
		</g>
	</g>
	<path class="st0" d="M13.9,90.6"/>
</g>
</svg>
