<?xml version="1.0" encoding="utf-8"?>
<!-- Generator: Adobe Illustrator 16.0.0, SVG Export Plug-In . SVG Version: 6.00 Build 0)  -->
<!DOCTYPE svg PUBLIC "-//W3C//DTD SVG 1.1//EN" "http://www.w3.org/Graphics/SVG/1.1/DTD/svg11.dtd">
<svg version="1.1" xmlns="http://www.w3.org/2000/svg" xmlns:xlink="http://www.w3.org/1999/xlink" x="0px" y="0px" width="150px"
	 height="150px" viewBox="0 0 150 150" style="enable-background:new 0 0 150 150;" xml:space="preserve">
<style type="text/css">
<![CDATA[
	.st0{stroke:#000000;stroke-miterlimit:10;}
]]>
</style>
<g id="Layer_3">
	<g>
		<g>
			<path d="M111.9,26.5C99.7,9.7,83.3-14,75.9,19.8C62-12.3,39.1,37.5,30.1,48.5C24.4,56.9,5.6,66.2,4,67l-1.6,2.5
				C4,72.9,16.2,83.9,20.3,89c6.1,7.6,17.2,13.1,25.1,18.4c3,2,6.1,4.2,9.2,6c2.1-4.1,4.8-8,6.9-11.7c0.8-1.4,1.7-3.3,2.6-5.4
				c-0.5-0.3-1-0.5-1.6-0.8c-5-2.5-10.3-4.1-15.5-5.9c-5-1.7-10-3.5-14.5-6.5c-2.2-1.5-4.3-3.2-6.1-5.2c-1.9-2.1-2.9-5.1-4.8-7.1
				c-0.6-0.6-0.9-1-1.2-1.4c2-1,13.9-5.1,18.7-8.4c9.8-7.6,21.3-37.1,32.7-21.9c9-17.7,18.8-0.8,26.2,7.6
				c9,10.1,19.6,18.6,29.4,27.8c-7,6.3-14.5,12-23,16.2c-4.3,2.1-8.7,3.5-13.1,5.1c-0.2,0.1-0.4,0.2-0.6,0.3
				c0.1,0.1,0.1,0.2,0.2,0.3c4.3,6.7,10.1,15.2,12,23c2.5-0.1,5-0.1,7.4-0.9c6.4-1.9,11.1-6.8,14.7-12.5c1.9-3,18.3-38.5,21.9-35.7
				C132.4,59.4,122.6,41.7,111.9,26.5z"/>
			<g>
				<path d="M113.6,25.5c-5.9-8.1-12.7-20.1-22.4-24C80.3-2.8,76,10.9,74.1,19.3c1.2-0.2,2.4-0.3,3.5-0.5c-3.3-7.3-9-14-17.4-10.6
					C51.9,11.6,46.1,20.9,41.2,28c-5.5,8.1-9.9,17.6-17.2,24.1c-4.8,4.3-10.7,7.6-16.3,10.7c-3.3,1.8-5,2.5-7.1,5.7
					c-0.4,0.6-0.3,1.4,0,2c4.7,8.1,13.4,14.2,19.5,21.2c4,4.6,9.4,8,14.5,11.2c6.4,4,12.6,8.3,19.1,12.2c0.9,0.5,2.1,0.2,2.7-0.7
					c3.1-5.8,6.8-11.1,9.4-17.1c0.4-0.9,0.3-2.2-0.7-2.7c-7.7-4-16-6.1-23.9-9.2c-5.1-2-9.5-4.8-13.4-8.8c-2.3-2.4-3.8-5.9-6-8.5
					c-0.1,1-0.3,2.1-0.4,3.1c9.5-4.2,18.3-6.5,25-15.1c5-6.4,15.2-26.4,24.1-15.5c0.8,1,2.5,0.6,3-0.4c1.9-3.3,4.1-7.5,8.6-6.6
					c2.4,0.5,4.5,2.8,6.1,4.5c3.1,3.1,6.1,6.7,8.9,10.1C105.9,58.5,116,66.9,127,76c0-0.9,0-1.9,0-2.8c-6,4.7-11.3,9-17.3,12.7
					c-6,3.7-12.8,5.6-19.2,8.3c-1.1,0.5-2,1.7-1.3,2.9c4.4,7.6,9.5,14.3,12,22.9c0.2,0.8,1,1.5,1.8,1.5c14-0.6,21.4-9.4,27.4-21.3
					c2.7-5.4,5.4-10.7,8.3-16c1.4-2.5,2.8-4.9,4.3-7.3c0.7-1.2,1.5-2.3,2.4-3.3c0.8-0.9,1.7-1,0.7-1.5c2.3,1.1,3.9-1.9,2-3.5
					C133.4,57.4,124.1,40.7,113.6,25.5c-1.4-2.1-4.8-0.1-3.3,2c10.9,15.8,20.6,32.8,35.9,44.6c0.7-1.2,1.3-2.3,2-3.5
					c-6.2-2.9-13.3,14.6-15.2,18.2c-7.2,13.5-12.1,29.8-29.8,30.6c0.6,0.5,1.2,1,1.9,1.5c-2.5-8.9-7.8-16-12.4-23.9
					c-0.4,1-0.8,2-1.2,2.9c6.8-2.8,13.4-4.9,19.9-8.7c6.4-3.7,12.1-8.5,17.7-13.4c0.8-0.7,0.7-2.1,0-2.8
					c-12.3-11.6-24.8-22.3-35.6-35.4c-2.8-3.3-7.1-8.2-11.8-8.4c-5.6-0.2-8.7,4.2-11.2,8.7c1-0.1,2-0.3,3-0.4
					c-8.5-10.3-17.4-0.9-23.4,7c-3.8,5.1-7.3,11.8-12.8,15.3c-5.4,3.5-11.8,5.1-17.6,7.7c-1.2,0.5-1.1,2.3-0.4,3.1
					c2.2,2.7,3.8,5.7,6,8.5c2.6,3.4,6.8,5.8,10.5,7.8c8.8,4.7,18.8,6.3,27.6,10.9c-0.2-0.9-0.5-1.8-0.7-2.7
					c-2.6,6-6.3,11.4-9.4,17.1c0.9-0.2,1.8-0.5,2.7-0.7C47,106.4,38.2,100.9,29.9,95c-7-4.9-12.6-12.3-18.7-18.4
					c-2.4-2.4-4.9-4.7-6.8-7.5c-0.3,1.3-0.1,1.4,0.5,0.2c0.6-0.9,0.8-1.1,0.4-0.7c0.8-0.4,1.7-0.9,2.5-1.3c6.7-3.5,13.2-7.5,19-12.3
					c8.6-7.2,13.7-19.1,20.1-28.3c3.6-5.2,7.8-10.6,13.2-14c6.9-4.4,11.5,2.1,14.2,8.1c0.7,1.6,3.2,1.1,3.5-0.5
					c1.2-5,2.4-10.4,5.9-14.2c3.1-3.3,7.5-0.4,10.2,1.8c6.5,5.3,11.4,12.9,16.3,19.6C111.7,29.6,115.1,27.6,113.6,25.5z"/>
			</g>
		</g>
		<g>
			<path d="M62.2,71.5c8.8,3.8,4.7,17.4,2.5,24.3c-2.9,9.5-8.8,17-12.9,25.8c-9.3,20.2,12.4,28.7,28,28.5
				c14.7-0.1,29.3-9.2,24.7-25.9c-2-7.3-6.5-13.8-10.5-20c-7-10.8-10.6-24.1-7.7-37c0.6-2.5-3.2-3.6-3.7-1.1
				c-1.9,8.5-1.1,17.2,1.2,25.6c2.4,8.5,7.7,15.3,12,22.8c3.5,5.9,7.2,13.3,5.4,20.4c-2.5,9.7-16.7,11.4-24.7,11.2
				c-9.6-0.2-22.8-3.9-23-15.9c-0.2-9.5,9.2-18.9,12.8-27.4c3.8-9.3,10.5-29.3-2.1-34.9C61.9,67,59.9,70.5,62.2,71.5L62.2,71.5z"/>
		</g>
	</g>
</g>
<g id="Layer_12">
</g>
<g id="Layer_7">
</g>
</svg>
