<?xml version="1.0" encoding="utf-8"?>
<!-- Generator: Adobe Illustrator 16.0.0, SVG Export Plug-In . SVG Version: 6.00 Build 0)  -->
<!DOCTYPE svg PUBLIC "-//W3C//DTD SVG 1.1//EN" "http://www.w3.org/Graphics/SVG/1.1/DTD/svg11.dtd">
<svg version="1.1" xmlns="http://www.w3.org/2000/svg" xmlns:xlink="http://www.w3.org/1999/xlink" x="0px" y="0px" width="150px"
	 height="150px" viewBox="0 0 150 150" style="enable-background:new 0 0 150 150;" xml:space="preserve">
<style type="text/css">
<![CDATA[
	.st0{stroke:#000000;stroke-miterlimit:10;}
]]>
</style>
<g id="Layer_3">
</g>
<g id="Layer_12">
	<g>
		<g>
			<path d="M6.7,76.1c0.4-2.9,1.1-10.7,5.1-11c3.4-0.3,6.9,3.1,9.2,5.1c6.1,5.4,11.1,12.1,15.9,18.6c4,5.4,7.5,11.2,11.3,16.9
				c2.5,3.7,5.5,10.1,9.6,12.2c7.9,3.9,17.1-9,19.2-15c1.4-4.1-5.1-5.9-6.5-1.8c-0.5,1.5-7.8,12.6-9.8,10.7
				c-4.7-4.4-8-11.5-11.5-16.8c-5.1-7.7-10.4-15.2-16.4-22.3c-4.8-5.6-11-12.6-18.6-14.1c-9.4-1.9-12.9,8.5-14,15.8
				C-0.4,78.6,6,80.4,6.7,76.1L6.7,76.1z"/>
		</g>
		<g>
			<path d="M98.8,88.3c0.5,2.9,3.7,3.8,6.1,2.9c2.6-1,4.8-2.8,6.9-4.6c2-1.7,3.8-3.6,5.4-5.7c2-2.6,0.9-6.1-2.5-6.5
				c-4.3-0.5-4.3,6.3,0,6.7c-2.8-1.2-3.7-2.7-2.8-4.4c-0.1,0.2-0.2,0.4-0.3,0.5c0,0-0.4,0.5-0.9,1c-1,1.1-2.2,2.2-3.3,3.2
				c-1.1,0.9-2.2,1.8-3.3,2.6c-0.3,0.2-1.8,0.9-1.2,0.7c-0.3,0.1-0.9,0.1,0,0c0.4,0.1,0.8,0.2,1.2,0.3c0.9,1.7,1.3,2.1,1.2,1.3
				C104.6,82.3,98.1,84.1,98.8,88.3L98.8,88.3z"/>
		</g>
		<g>
			<path d="M78.8,36.8c0.5-3,1-8.1,4.5-9.1c2.9-0.8,6.8,2.1,8.9,3.6c6.4,4.4,11.7,10.5,16.7,16.3c7.1,8.1,13.1,17.2,20.3,25.3
				c6.4,7.3,16.1,1.8,19.1-5.8c1.6-4-4.9-5.8-6.5-1.8c-0.8,2-4.4,6-6.9,3.9c-1.8-1.5-3.3-3.8-4.8-5.6c-4-4.9-7.7-10-11.6-14.9
				c-4.9-6.2-10.3-12.2-16-17.6c-5-4.7-10.8-9.3-17.8-10.1c-8-0.9-11.4,7.8-12.4,14.1C71.6,39.2,78.1,41,78.8,36.8L78.8,36.8z"/>
		</g>
		<g>
			<path d="M82.1,132.7c-6.8-3.2-15.5-15.1-16.6-24c-2-14.3,7.9-17.1,15.7-9.1c2.3-9.8,2-10.5,9.5-15.8c7-5,14.4,1.3,12.2,12.2
				c-2.1,10.3-4.3,12.3-9.3,21C91.1,121.2,82.1,132.7,82.1,132.7"/>
			<g>
				<path d="M82.9,131.2c-7.5-3.9-12.9-12.4-15.3-20.3c-1.2-4-1.7-10.5,2-13.3c3.3-2.6,7.9,0.8,10.3,3.1c0.9,0.8,2.5,0.5,2.8-0.7
					c1.6-6.9,2.8-10.6,8.7-14.8c5.2-3.7,9.3,0.4,10,5.7c0.5,4-1,8.5-2.3,12.2c-3.6,10.3-11.7,19.9-18.3,28.4c-1.3,1.7,1,4.1,2.4,2.4
					c9.4-12,22.2-26.9,21.7-43c-0.2-6.4-6.1-12.8-12.7-9.8c-8.4,3.7-10.7,9.8-12.6,18.1c0.9-0.2,1.9-0.5,2.8-0.7
					c-6.6-6.3-16.5-6.8-18.6,3.7c-2.3,11.8,7.2,26.8,17.4,32.1C83.2,135.1,84.9,132.2,82.9,131.2L82.9,131.2z"/>
			</g>
		</g>
		<g>
			<path d="M127.8,105.7c-7.1-3.2-16-15.1-17.2-24c-2.2-14.2,8.1-17,16.2-9c2.4-9.7,0.3-9.2,8-14.5c4.8-3.3,14.8,4.8,12.7,12.6
				c-2.7,10-2.6,10.5-7.8,19.2C137,94.4,127.8,105.7,127.8,105.7"/>
			<g>
				<path d="M128.7,104.3c-7.6-3.9-13.3-12.2-15.8-20.2c-1.3-4-1.7-10.4,2.1-13.3c3.4-2.5,8.2,0.8,10.7,3.1c0.9,0.8,2.5,0.5,2.8-0.7
					c0.6-2.6,1-5.3,1.7-7.9c0.7-2.6,3.5-4.1,5.6-5.5c4-2.7,8.8,3.5,10,6.5c1.3,3.4-0.8,8-1.8,11.3c-3,10.2-10.7,18.9-17.2,27
					c-1.4,1.7,1,4.1,2.4,2.4c4.2-5.2,8.6-10.4,12.1-16.1c4.1-6.5,9.1-16,8.2-23.9c-0.7-6.2-7.7-12.5-14.1-10.8
					c-7.8,2-8.6,9.8-10,16.1c0.9-0.2,1.9-0.5,2.8-0.7c-6.7-6.2-17-7.1-19.1,3.6c-2.4,12,7.8,26.8,18.1,32.1
					C128.9,108.2,130.6,105.3,128.7,104.3L128.7,104.3z"/>
			</g>
		</g>
	</g>
</g>
<g id="Layer_7">
</g>
</svg>
