<?xml version="1.0" encoding="utf-8"?>
<!-- Generator: Adobe Illustrator 16.0.0, SVG Export Plug-In . SVG Version: 6.00 Build 0)  -->
<!DOCTYPE svg PUBLIC "-//W3C//DTD SVG 1.1//EN" "http://www.w3.org/Graphics/SVG/1.1/DTD/svg11.dtd">
<svg version="1.1" id="Layer_1" xmlns="http://www.w3.org/2000/svg" xmlns:xlink="http://www.w3.org/1999/xlink" x="0px" y="0px"
	 width="51.2px" height="48.9px" viewBox="0 0 51.2 48.9" style="enable-background:new 0 0 51.2 48.9;" xml:space="preserve">
<style type="text/css">
<![CDATA[
	.st0{fill:#F2D70C;}
	.st1{fill:#FFC952;}
]]>
</style>
<g>
	<polygon class="st0" points="25.6,3 32.7,17.3 48.5,19.6 37.1,30.8 39.8,46.5 25.6,39.1 11.5,46.5 14.2,30.8 2.8,19.6 18.6,17.3 	
		"/>
	<path class="st1" d="M10.2,48.3l3-17.2L0.6,18.9l17.3-2.5l7.7-15.7l7.7,15.7l17.3,2.5L38.1,31.1l3,17.2l-15.5-8.1L10.2,48.3z
		 M25.6,38l12.8,6.8L36,30.4l10.4-10.1l-14.4-2.1l-6.4-13l-6.4,13L4.9,20.3l10.4,10.1l-2.5,14.3L25.6,38z"/>
</g>
</svg>
